{"title":"Akira_(1988)_[1080p,BluRay,x264,DTS]_-_THORA.mkv","uid":8769512,"size":11731554231,"categoryP":"video","categoryS":"hd___movies","magnet":"?xt=urn:btih:b4bb3b05ffc9e2d589491117f7f957ad9d8b1bc1&amp;dn=Akira_%281988%29_%5B1080p%2CBluRay%2Cx264%2CDTS%5D_-_THORA.mkv&amp;tr=udp%3A%2F%2Ftracker.openbittorrent.com%3A80&amp;tr=udp%3A%2F%2Fopen.demonii.com%3A1337&amp;tr=udp%3A%2F%2Ftracker.coppersurfer.tk%3A6969&amp;tr=udp%3A%2F%2Fexodus.desync.com%3A6969","seeders":18,"leechers":2,"uploader":"rpessoa","files":1,"time":1375418879,"description":"A secret military project endangers Neo-Tokyo when it turns a biker gang member into a rampaging psionic psychopath that only two kids and a group of psionics can stop.\n\nEnglish subs embedded in mkv.\n &lt;a href=&quot;\nhttp://www.imdb.com/title/tt0094625/&quot; rel=&quot;nofollow&quot; target=&quot;_NEW&quot;&gt;\nhttp://www.imdb.com/title/tt0094625/&lt;/a&gt;\n\nGeneral\nUnique ID                                : 184913290896345539250248026470965845969 (0x8B1D0120B3C34C8DBC5CFCC08C581FD1)\nComplete name                            : Akira_(1988)_[1080p,BluRay,x264,DTS]_-_THORA.mkv\nFormat                                   : Matroska\nFormat version                           : Version 1\nFile size                                : 10.9 GiB\nDuration                                 : 2h 4mn\nOverall bit rate                         : 12.6 Mbps\nMovie name                               : Akira (1988) [1080p,BluRay,x264,DTS] - THORA\nEncoded date                             : UTC 2009-02-12 16:47:05\nWriting application                      : mkvmerge v2.4.2 ('Oh My God') built on Jan 18 2009 17:30:28\nWriting library                          : libebml v0.7.7 + libmatroska v0.8.1\nAttachment                               : Yes\n\nVideo\nID                                       : 1\nFormat                                   : AVC\nFormat/Info                              : Advanced Video Codec\nFormat profile                           : &lt;a class=&quot;__cf_email__&quot; href=&quot;/cdn-cgi/l/email-protection&quot; data-cfemail=&quot;1159787679515d253f20&quot;&gt;[email&amp;#160;protected]&lt;/a&gt;&lt;script cf-hash='f9e31' type=&quot;text/javascript&quot;&gt;\n/* &lt;![CDATA[ */!function(){try{var t=&quot;currentScript&quot;in document?document.currentScript:function(){for(var t=document.getElementsByTagName(&quot;script&quot;),e=t.length;e--;)if(t[e].getAttribute(&quot;cf-hash&quot;))return t[e]}();if(t&amp;&amp;t.previousSibling){var e,r,n,i,c=t.previousSibling,a=c.getAttribute(&quot;data-cfemail&quot;);if(a){for(e=&quot;&quot;,r=parseInt(a.substr(0,2),16),n=2;a.length-n;n+=2)i=parseInt(a.substr(n,2),16)^r,e+=String.fromCharCode(i);e=document.createTextNode(e),c.parentNode.replaceChild(e,c)}}}catch(u){}}();/* ]]&gt; */&lt;/script&gt;\nFormat settings, CABAC                   : Yes\nFormat settings, ReFrames                : 4 frames\nCodec ID                                 : V_MPEG4/ISO/AVC\nDuration                                 : 2h 4mn\nBit rate                                 : 11.1 Mbps\nWidth                                    : 1 888 pixels\nHeight                                   : 1 016 pixels\nDisplay aspect ratio                     : 1.858\nFrame rate                               : 23.976 fps\nColor space                              : YUV\nChroma subsampling                       : 4:2:0\nBit depth                                : 8 bits\nScan type                                : Progressive\nBits/(Pixel*Frame)                       : 0.240\nStream size                              : 9.40 GiB (86%)\nWriting library                          : x264 core 66 r1101M b69548a\nEncoding settings                        : cabac=1 // deblock=1:-3:-3 / analyse=0x3:0x113 / me=umh / subme=9 / psy_rd=0.8:0.7 // me_range=16 / chroma_me=1 / trellis=2 / 8x8dct=1 / cqm=2 / deadzone=21,11 / chroma_qp_offset=-4 / threads=6 / nr=0 / decimate=1 / mbaff=0 / bframes=3 / b_pyramid=0 / b_adapt=2 / b_bias=0 / direct=3 / wpredb=1 / keyint=250 / keyint_min=25 / scenecut=40(pre) / rc=2pass / bitrate=11050 / ratetol=1.0 / qcomp=0.60 / qpmin=10 / qpmax=27 / qpstep=4 / cplxblur=20.0 / qblur=0.5 / vbv_maxrate=40000 / vbv_bufsize=40000 / ip_ratio=1.40 / pb_ratio=1.30 / aq=1:0.70\nLanguage                                 : Japanese\nDefault                                  : Yes\nForced                                   : No\n\nAudio\nID                                       : 2\nFormat                                   : DTS\nFormat/Info                              : Digital Theater Systems\nCodec ID                                 : A_DTS\nDuration                                 : 2h 4mn\nBit rate mode                            : Constant\nBit rate                                 : 1 510 Kbps\nChannel(s)                               : 6 channels\nChannel positions                        : Front: L C R, Side: L R, LFE\nSampling rate                            : 48.0 KHz\nBit depth                                : 24 bits\nCompression mode                         : Lossy\nStream size                              : 1.31 GiB (12%)\nLanguage                                 : Japanese\nDefault                                  : Yes\nForced                                   : No\n\nText\nID                                       : 3\nFormat                                   : ASS\nCodec ID                                 : S_TEXT/ASS\nCodec ID/Info                            : Advanced Sub Station Alpha\nCompression mode                         : Lossless\nLanguage                                 : English\nDefault                                  : Yes\nForced                                   : No","torrent":{"xt":"urn:btih:b4bb3b05ffc9e2d589491117f7f957ad9d8b1bc1","amp;dn":"Akira_%281988%29_%5B1080p%2CBluRay%2Cx264%2CDTS%5D_-_THORA.mkv","amp;tr":["udp%3A%2F%2Ftracker.openbittorrent.com%3A80","udp%3A%2F%2Fopen.demonii.com%3A1337","udp%3A%2F%2Ftracker.coppersurfer.tk%3A6969","udp%3A%2F%2Fexodus.desync.com%3A6969"],"infoHash":"b4bb3b05ffc9e2d589491117f7f957ad9d8b1bc1","infoHashBuffer":{"type":"Buffer","data":[180,187,59,5,255,201,226,213,137,73,17,23,247,249,87,173,157,139,27,193]},"announce":[],"urlList":[]}}